<svg width="105" height="36" viewBox="0 0 105 36" fill="none" xmlns="http://www.w3.org/2000/svg">
<path d="M4.95312 35H0.640625V0.734375H10.0859C14.3516 0.734375 17.5 1.54688 19.5312 3.17188C21.5625 4.78125 22.5781 7.21094 22.5781 10.4609C22.5781 12.3047 22.2422 13.8281 21.5703 15.0312C20.8984 16.25 20.0391 17.2266 18.9922 17.9609C17.9609 18.6953 16.8672 19.2578 15.7109 19.6484L25.1094 35H20.0703L11.7734 20.8438H4.95312V35ZM9.85156 4.46094H4.95312V17.1875H10.0859C12.8828 17.1875 14.9141 16.6406 16.1797 15.5469C17.4609 14.4375 18.1016 12.8125 18.1016 10.6719C18.1016 8.42188 17.4297 6.82812 16.0859 5.89062C14.7422 4.9375 12.6641 4.46094 9.85156 4.46094ZM48.7812 18.9688H34.8125V31.2031H49.6484V35H30.5V0.734375H49.6484V4.53125H34.8125V15.2188H48.7812V18.9688ZM76.625 25.8359C76.625 28.8672 75.5156 31.2344 73.2969 32.9375C71.0938 34.625 68.1172 35.4688 64.3672 35.4688C62.4609 35.4688 60.6875 35.3281 59.0469 35.0469C57.4219 34.7656 56.0625 34.3672 54.9688 33.8516V29.7266C56.125 30.2266 57.5547 30.6875 59.2578 31.1094C60.9766 31.5312 62.75 31.7422 64.5781 31.7422C67.0938 31.7422 69.0078 31.25 70.3203 30.2656C71.6328 29.2656 72.2891 27.9141 72.2891 26.2109C72.2891 25.0859 72.0547 24.1406 71.5859 23.375C71.1016 22.5938 70.2656 21.8906 69.0781 21.2656C67.8906 20.625 66.2734 19.9219 64.2266 19.1562C61.2891 18.1094 59.0781 16.8203 57.5938 15.2891C56.125 13.7422 55.3906 11.6406 55.3906 8.98438C55.3906 7.1875 55.8594 5.63281 56.7969 4.32031C58.7188 1.60156 61.8984 0.242188 66.3359 0.242188C68.1953 0.242188 69.9062 0.421875 71.4688 0.78125C73.0469 1.125 74.4922 1.58594 75.8047 2.16406L74.4453 5.86719C73.2734 5.35156 71.9766 4.92188 70.5547 4.57812C69.1484 4.21875 67.7109 4.03906 66.2422 4.03906C64.1016 4.03906 62.4844 4.5 61.3906 5.42188C60.3125 6.32813 59.7734 7.53125 59.7734 9.03125C59.7734 10.1875 60.0156 11.1484 60.5 11.9141C60.9688 12.6797 61.75 13.375 62.8438 14C63.9375 14.625 65.4062 15.2734 67.25 15.9453C69.25 16.6641 70.9531 17.4531 72.3594 18.3125C73.75 19.1719 74.8047 20.1953 75.5234 21.3828C76.2578 22.5547 76.625 24.0391 76.625 25.8359ZM78.3594 0.734375H104.047V4.53125H93.3828V35H89.0703V4.53125H78.3594V0.734375Z" fill="white"/>
</svg>
